# xmcd CD database file generated by Grip 2.94
# 
# Track frame offsets:
#       150
#       11055
#       30012
#       47815
#       65020
#       97650
#       112950
#       130317
#       150215
#       166822
#       186360
#       204392
# 
# Disc length: 3001 seconds
# 
# Revision: 3
# Processed by: cddbd v1.4b41PL1 Copyright (c) Steve Scherf et al.
# Submitted via: Grip 2.94
# 
DISCID=8a0bb70c
DTITLE=Otis and the Alligators - Tail Shakin' Blues
DYEAR=1900
DGENRE=
TTITLE0=Too Late
TTITLE1=Paying the cost to be the boss
TTITLE2=I can't hold out
TTITLE3=The next time you see me
TTITLE4=Walkin' the streets at midnight
TTITLE5=The chill
TTITLE6=Damn your eyes
TTITLE7=What's the big idea
TTITLE8=She's into somthing
TTITLE9=Bring back the night
TTITLE10=Don't look for me
TTITLE11=Gimme one more day
EXTD=
EXTT0=
EXTT1=
EXTT2=
EXTT3=
EXTT4=
EXTT5=
EXTT6=
EXTT7=
EXTT8=
EXTT9=
EXTT10=
EXTT11=
PLAYORDER=
